<svg width="75" height="97" viewBox="0 0 75 97" fill="none" xmlns="http://www.w3.org/2000/svg">
<path d="M2.07202 49.0208C4.92863 35.3878 8.47876 23.4646 13.9291 14.9566C19.3604 6.47836 26.6569 1.41821 37.0629 1.41821C47.4688 1.41821 55.4366 6.80713 61.2779 15.4592C67.1292 24.1261 70.8245 36.0431 72.6372 48.9876C73.4632 54.8858 74.0426 61.1831 73.6816 67.0478C73.3203 72.9174 72.0198 78.3047 69.1281 82.4219C62.2183 92.2599 48.5024 96.4182 37.0629 96.4182C25.6461 96.4182 13.5669 92.2731 6.64783 82.4219C0.822042 74.1272 -0.563581 61.5989 2.07202 49.0208Z" fill="#FFE74C" stroke="#1E1E24"/>
<path d="M57.793 70.9207C57.793 80.4965 48.2656 88.4207 36.293 88.4207C24.3204 88.4207 14.793 80.4965 14.793 70.9207C14.793 61.3448 24.3204 53.4207 36.293 53.4207C48.2656 53.4207 57.793 61.3448 57.793 70.9207Z" fill="#BBF100" stroke="#1E1E24"/>
<path d="M47.7949 28.918C47.7949 36.4489 42.5767 42.418 36.2949 42.418C30.0132 42.418 24.7949 36.4489 24.7949 28.918C24.7949 21.387 30.0132 15.418 36.2949 15.418C42.5767 15.418 47.7949 21.387 47.7949 28.918Z" fill="#FF4000" stroke="#1E1E24"/>
<path d="M40.258 27.9185C40.258 31.9087 37.7605 34.9185 34.9246 34.9185C32.0888 34.9185 29.5913 31.9087 29.5913 27.9185C29.5913 23.9282 32.0888 20.9185 34.9246 20.9185C37.7605 20.9185 40.258 23.9282 40.258 27.9185Z" fill="#1E1E24" stroke="#1E1E24"/>
</svg>
